<svg width="22" height="21" viewBox="0 0 22 21" fill="none" xmlns="http://www.w3.org/2000/svg">
<path id="Icon" d="M11 5.63635C11 4.57549 10.5786 3.55807 9.82843 2.80793C9.07828 2.05778 8.06087 1.63635 7 1.63635H1V16.6364H8C8.79565 16.6364 9.55871 16.9524 10.1213 17.515C10.6839 18.0776 11 18.8407 11 19.6364M11 5.63635V19.6364M11 5.63635C11 4.57549 11.4214 3.55807 12.1716 2.80793C12.9217 2.05778 13.9391 1.63635 15 1.63635H21V16.6364H14C13.2044 16.6364 12.4413 16.9524 11.8787 17.515C11.3161 18.0776 11 18.8407 11 19.6364" stroke="white" stroke-width="2" stroke-linecap="round" stroke-linejoin="round"/>
</svg>
