<svg width="30" height="30" viewBox="0 0 30 30" fill="none" xmlns="http://www.w3.org/2000/svg">
<g id="Group 19">
<circle id="Ellipse 7" cx="15" cy="15" r="15" fill="#37A033" fill-opacity="0.12"/>
<path id="Icon" d="M14.7093 9.5814H9.49096C9.09553 9.5814 8.7163 9.73848 8.43669 10.0181C8.15708 10.2977 8 10.6769 8 11.0724V21.509C8 21.9045 8.15708 22.2837 8.43669 22.5633C8.7163 22.8429 9.09553 23 9.49096 23H19.9276C20.3231 23 20.7023 22.8429 20.9819 22.5633C21.2615 22.2837 21.4186 21.9045 21.4186 21.509V16.2907M20.3004 8.46318C20.597 8.16661 20.9992 8 21.4186 8C21.838 8 22.2402 8.16661 22.5368 8.46318C22.8334 8.75975 23 9.16198 23 9.5814C23 10.0008 22.8334 10.403 22.5368 10.6996L15.4548 17.7817L12.4729 18.5271L13.2183 15.5452L20.3004 8.46318Z" stroke="#37A033" stroke-width="2" stroke-linecap="round" stroke-linejoin="round"/>
</g>
</svg>
