<svg width="40" height="40" viewBox="0 0 40 40" fill="none" xmlns="http://www.w3.org/2000/svg">
<g id="Group 60">
<g id="Group 11">
<circle id="Ellipse 2" cx="20" cy="20" r="19.5" stroke="#D9D9D9"/>
</g>
<path id="Vector" d="M17.8594 19.1562C17.8594 19.7603 17.3452 20.25 16.7109 20.25C16.0767 20.25 15.5625 19.7603 15.5625 19.1562C15.5625 17.4331 17.0345 16.0312 18.8437 16.0312C20.653 16.0312 22.125 17.4331 22.125 19.1562C22.125 19.7603 21.6108 20.25 20.9765 20.25C20.3423 20.25 19.8281 19.7603 19.8281 19.1562C19.8281 18.6393 19.3865 18.2187 18.8437 18.2187C18.301 18.2187 17.8594 18.6393 17.8594 19.1562ZM18.8437 12.2812C14.8633 12.2812 11.625 15.3653 11.625 19.1562C11.625 19.7603 12.1392 20.25 12.7734 20.25C13.4077 20.25 13.9219 19.7603 13.9219 19.1562C13.9219 16.5716 16.1298 14.4687 18.8437 14.4687C21.5577 14.4687 23.7656 16.5716 23.7656 19.1562C23.7656 22.0923 20.8531 21.9028 20.8126 24.7665L20.8125 24.7812C20.8125 25.9013 19.8557 26.8125 18.6797 26.8125C18.0454 26.8125 17.5312 27.3022 17.5312 27.9062C17.5312 28.5103 18.0454 29 18.6797 29C21.1191 29 23.1043 27.1122 23.1094 24.7901C23.1338 23.4452 26.0625 22.9057 26.0625 19.1562C26.0625 15.3653 22.8242 12.2812 18.8437 12.2812ZM29.8558 10.2421L28.6957 9.13729C28.5035 8.95424 28.1919 8.95424 27.9996 9.13729L24.4301 12.5369C24.2379 12.7199 24.2379 13.0167 24.4301 13.1998L25.5902 14.3047C25.7824 14.4877 26.094 14.4877 26.2862 14.3047L29.8558 10.9051C30.0481 10.722 30.0481 10.4252 29.8558 10.2421ZM15.9304 21.2947C15.7382 21.1117 15.4266 21.1117 15.2344 21.2947L9.14415 27.0949C8.95195 27.278 8.95195 27.5748 9.14415 27.7579L10.3043 28.8627C10.4965 29.0457 10.8081 29.0457 11.0004 28.8627L17.0906 23.0625C17.2828 22.8794 17.2828 22.5827 17.0906 22.3996L15.9304 21.2947Z" fill="#37A033"/>
</g>
</svg>
