<svg width="40" height="40" viewBox="0 0 40 40" fill="none" xmlns="http://www.w3.org/2000/svg">
<g id="Group 8">
<circle id="Ellipse 3" cx="20" cy="20" r="19.5" stroke="#D9D9D9"/>
<g id="Icon">
<path d="M21.1923 26.3256C21.1923 27.2503 20.4346 28 19.5 28C18.5654 28 17.8077 27.2503 17.8077 26.3256C17.8077 25.4008 18.5654 24.6512 19.5 24.6512C20.4346 24.6512 21.1923 25.4008 21.1923 26.3256Z" fill="#37A033"/>
<path fill-rule="evenodd" clip-rule="evenodd" d="M19.5 12.5116C17.8979 12.5116 16.5385 13.8435 16.5385 15.5615C16.5385 16.255 15.9702 16.8173 15.2692 16.8173C14.5683 16.8173 14 16.255 14 15.5615C14 12.5235 16.429 10 19.5 10C22.571 10 25 12.5235 25 15.5615C25 17.9575 23.4968 20.0211 21.3582 20.7972C21.1476 20.8736 20.9762 20.9906 20.8728 21.1045C20.7761 21.2111 20.7692 21.2761 20.7692 21.3023C20.7692 21.9959 20.201 22.5581 19.5 22.5581C18.799 22.5581 18.2308 21.9959 18.2308 21.3023C18.2308 19.7558 19.4889 18.8003 20.4842 18.4391C21.6206 18.0268 22.4615 16.9065 22.4615 15.5615C22.4615 13.8435 21.1021 12.5116 19.5 12.5116Z" fill="#37A033"/>
</g>
</g>
</svg>
