<svg width="20" height="22" viewBox="0 0 20 22" fill="none" xmlns="http://www.w3.org/2000/svg">
<path id="Icon" d="M19 10.5836L10.49 19.0936C9.44748 20.1361 8.03349 20.7218 6.55912 20.7218C5.08475 20.7218 3.67077 20.1361 2.62823 19.0936C1.58569 18.0511 1 16.6371 1 15.1627C1 13.6883 1.58569 12.2744 2.62823 11.2318L11.1382 2.72184C11.8332 2.02681 12.7759 1.63635 13.7588 1.63635C14.7417 1.63635 15.6844 2.02681 16.3794 2.72184C17.0744 3.41686 17.4649 4.35952 17.4649 5.34243C17.4649 6.32535 17.0744 7.268 16.3794 7.96303L7.86016 16.473C7.51265 16.8205 7.04132 17.0158 6.54986 17.0158C6.0584 17.0158 5.58708 16.8205 5.23956 16.473C4.89205 16.1255 4.69682 15.6542 4.69682 15.1627C4.69682 14.6713 4.89205 14.1999 5.23956 13.8524L13.1013 5.9999" stroke="white" stroke-width="2" stroke-linecap="round" stroke-linejoin="round"/>
</svg>
