<svg width="42" height="40" viewBox="0 0 42 40" fill="none" xmlns="http://www.w3.org/2000/svg">
<g id="Group 19">
<ellipse id="Ellipse 7" cx="20.7736" cy="20" rx="20.2736" ry="20" fill="#37A033" fill-opacity="0.12"/>
<path id="Icon" d="M21 15C21 13.9391 20.5786 12.9217 19.8284 12.1716C19.0783 11.4214 18.0609 11 17 11H11V26H18C18.7956 26 19.5587 26.3161 20.1213 26.8787C20.6839 27.4413 21 28.2044 21 29M21 15V29M21 15C21 13.9391 21.4214 12.9217 22.1716 12.1716C22.9217 11.4214 23.9391 11 25 11H31V26H24C23.2044 26 22.4413 26.3161 21.8787 26.8787C21.3161 27.4413 21 28.2044 21 29" stroke="#37A033" stroke-width="2" stroke-linecap="round" stroke-linejoin="round"/>
</g>
</svg>
