<svg width="42" height="40" viewBox="0 0 42 40" fill="none" xmlns="http://www.w3.org/2000/svg">
<g id="Group 19">
<ellipse id="Ellipse 7" cx="20.7736" cy="20" rx="20.2736" ry="20" fill="#37A033" fill-opacity="0.12"/>
<path id="Icon" d="M20.0512 12.8977H13.7891C13.3146 12.8977 12.8596 13.0862 12.524 13.4217C12.1885 13.7572 12 14.2123 12 14.6868V27.2109C12 27.6854 12.1885 28.1404 12.524 28.476C12.8596 28.8115 13.3146 29 13.7891 29H26.3132C26.7877 29 27.2428 28.8115 27.5783 28.476C27.9138 28.1404 28.1023 27.6854 28.1023 27.2109V20.9488M26.7605 11.5558C27.1163 11.1999 27.599 11 28.1023 11C28.6056 11 29.0883 11.1999 29.4442 11.5558C29.8001 11.9117 30 12.3944 30 12.8977C30 13.401 29.8001 13.8837 29.4442 14.2395L20.9457 22.738L17.3674 23.6326L18.262 20.0543L26.7605 11.5558Z" stroke="#37A033" stroke-width="2" stroke-linecap="round" stroke-linejoin="round"/>
</g>
</svg>
